<svg xmlns="http://www.w3.org/2000/svg" viewBox="0 0 350 500" role="img" aria-label="Piccolo">
  <defs>
    <radialGradient id="aura3" cx="50%" cy="42%" r="65%">
      <stop offset="0%" stop-color="#c9f2d6"/>
      <stop offset="45%" stop-color="#2f8f5c"/>
      <stop offset="100%" stop-color="#0a2b1a"/>
    </radialGradient>
    <linearGradient id="frame3" x1="0" y1="0" x2="0" y2="1">
      <stop offset="0%" stop-color="#d6b98a"/>
      <stop offset="100%" stop-color="#8a6a3c"/>
    </linearGradient>
  </defs>

  <rect x="4" y="4" width="342" height="492" rx="20" fill="url(#frame3)"/>
  <rect x="14" y="14" width="322" height="472" rx="14" fill="#0a1710"/>
  <rect x="20" y="20" width="310" height="330" rx="10" fill="url(#aura3)"/>

  <path d="M115 300 L112 210 Q112 185 145 180 L160 180 L175 200 L190 180 L205 180 Q238 185 238 210 L235 300 Z" fill="#6a2fa8" stroke="#3d1a66" stroke-width="3"/>
  <path d="M175 178 L100 240 M175 178 L250 240" stroke="#e04a2f" stroke-width="10" stroke-linecap="round"/>
  <rect x="113" y="296" width="124" height="16" fill="#f2c34d"/>

  <circle cx="175" cy="150" r="42" fill="#5fbf7a" stroke="#2a7a45" stroke-width="2"/>
  <path d="M150 118 Q140 95 148 78" stroke="#5fbf7a" stroke-width="9" stroke-linecap="round" fill="none"/>
  <path d="M200 118 Q210 95 202 78" stroke="#5fbf7a" stroke-width="9" stroke-linecap="round" fill="none"/>
  <path d="M155 190 Q175 205 195 190 L195 178 L155 178 Z" fill="#e04a2f"/>

  <path d="M108 258 L86 224 M242 258 L264 224" stroke="#5fbf7a" stroke-width="16" stroke-linecap="round"/>
  <circle cx="84" cy="219" r="12" fill="#5fbf7a" stroke="#2a7a45" stroke-width="2"/>
  <circle cx="266" cy="219" r="12" fill="#5fbf7a" stroke="#2a7a45" stroke-width="2"/>

  <rect x="20" y="392" width="310" height="88" rx="10" fill="#0a1710" stroke="#d6b98a" stroke-width="2"/>
  <text x="175" y="436" fill="#d6b98a" font-family="Georgia, 'Times New Roman', serif" font-size="26" font-weight="700" text-anchor="middle">PICCOLO</text>
  <text x="175" y="460" fill="#8fcf9f" font-family="Georgia, 'Times New Roman', serif" font-size="15" text-anchor="middle">Guerrero Namekiano</text>
</svg>
